<svg xmlns="http://www.w3.org/2000/svg" width="600" height="600" viewBox="0 0 600 600"><rect width="100%" height="100%" fill="none"/><path fill="#FFF" d="M316.725 248.025v79.95q25.35-.45 38.93-14.93 13.57-14.47 13.57-41.17 0-11.1-3.07-19.95-3.08-8.85-8.03-15.07-4.95-6.23-11.1-9.53t-12.15-3.3q-8.25 0-13.2 5.33-4.95 5.32-4.95 18.67m-34.8 79.95v-79.95q0-13.65 3.68-23.32 3.67-9.68 10.57-15.9 6.9-6.23 16.73-9.16 9.82-2.92 21.97-2.92 15.9 0 29.1 5.77 13.2 5.78 22.57 15.9 9.38 10.13 14.56 23.86 5.17 13.72 5.17 29.62 0 19.2-6.6 34.5t-18.45 26.1-28.27 16.73q-16.43 5.92-36.23 6.07v48h-34.8v-48q-19.65-.3-35.85-6.15t-27.82-16.28q-11.63-10.42-18.08-24.97t-6.45-32.1q0-13.65 4.05-25.65t11.48-21.98q7.42-9.97 17.77-17.69 10.35-7.73 22.95-12.83l9.75 14.85q1.35 2.1 1.5 4.5t-.52 4.5q-.68 2.1-1.95 3.83-1.28 1.72-2.78 2.32-11.7 6.75-18.45 19.2t-6.75 29.25q0 11.7 3.45 21.15t10.05 16.2 16.13 10.5q9.52 3.75 21.52 4.05"/></svg>
